<?xml version="1.0" encoding="UTF-8" standalone="no"?>
<!DOCTYPE svg PUBLIC "-//W3C//DTD SVG 1.1//EN" "http://www.w3.org/Graphics/SVG/1.1/DTD/svg11.dtd">
<svg width="100%" height="100%" viewBox="0 0 705 780" version="1.1" xmlns="http://www.w3.org/2000/svg" xmlns:xlink="http://www.w3.org/1999/xlink" xml:space="preserve" xmlns:serif="http://www.serif.com/" style="fill-rule:evenodd;clip-rule:evenodd;">
    <g transform="matrix(4.16667,0,0,4.16667,-157.171,-89.0938)">
        <path d="M102.076,109.591L102.067,118.669" style="fill:none;fill-rule:nonzero;stroke:black;stroke-width:0.75px;"/>
        <path d="M99.817,118.667L102.061,124.669L104.317,118.671L99.817,118.667Z" style="fill-rule:nonzero;stroke:black;stroke-width:0.75px;"/>
    </g>
    <g transform="matrix(4.16667,0,0,4.16667,160.508,257.873)">
        <text x="0px" y="0px" style="font-family:'HelveticaNeue', 'Helvetica Neue';font-size:10px;">D-MM-CoA</text>
    </g>
    <g transform="matrix(4.16667,0,0,4.16667,135.337,466.823)">
        <text x="0px" y="0px" style="font-family:'HelveticaNeue', 'Helvetica Neue';font-size:10px;">Succinyl-CoA</text>
    </g>
    <g transform="matrix(4.16667,0,0,4.16667,2.4625,200.435)">
        <text x="0px" y="0px" style="font-family:'HelveticaNeue-Italic', 'Helvetica Neue';font-style:italic;font-size:8px;fill:rgb(172,172,172);stroke:black;stroke-width:0.1px;stroke-linejoin:round;stroke-miterlimit:2;">pcca-1&amp;pccb-1</text>
    </g>
    <g transform="matrix(4.16667,0,0,4.16667,146.625,303.923)">
        <text x="0px" y="0px" style="font-family:'HelveticaNeue-Italic', 'Helvetica Neue';font-style:italic;font-size:8px;fill:rgb(172,172,172);stroke:black;stroke-width:0.1px;stroke-linejoin:round;stroke-miterlimit:2;">mce-1</text>
    </g>
    <g transform="matrix(4.16667,0,0,4.16667,113.087,417.523)">
        <text x="0px" y="0px" style="font-family:'HelveticaNeue-Italic', 'Helvetica Neue';font-style:italic;font-size:8px;fill:rgb(172,172,172);stroke:black;stroke-width:0.1px;stroke-linejoin:round;stroke-miterlimit:2;">mmcm-1</text>
    </g>
    <g transform="matrix(4.16667,0,0,4.16667,299.054,415.706)">
        <text x="0px" y="0px" style="font-family:'HelveticaNeue-Bold', 'Helvetica Neue';font-weight:700;font-size:8px;fill:rgb(55,177,255);">B12</text>
    </g>
    <g transform="matrix(4.16667,0,0,4.16667,491.637,768.631)">
        <text x="0px" y="0px" style="font-family:'HelveticaNeue', 'Helvetica Neue';font-size:10px;">Acetyl-CoA</text>
    </g>
    <g transform="matrix(4.16667,0,0,4.16667,-157.171,-89.0938)">
        <path d="M175.514,180.536L175.514,190.266" style="fill:none;fill-rule:nonzero;stroke:black;stroke-width:0.75px;"/>
        <path d="M173.264,190.266L175.514,196.266L177.764,190.266L173.264,190.266Z" style="fill-rule:nonzero;stroke:black;stroke-width:0.75px;"/>
    </g>
    <g transform="matrix(4.16667,0,0,4.16667,138.696,146.469)">
        <text x="0px" y="0px" style="font-family:'HelveticaNeue', 'Helvetica Neue';font-size:10px;">Pr<tspan x="9.63px 15.37px " y="0px 0px ">op</tspan>ionyl-CoA</text>
    </g>
    <g transform="matrix(4.16667,0,0,4.16667,441.087,167.36)">
        <text x="0px" y="0px" style="font-family:'HelveticaNeue-Italic', 'Helvetica Neue';font-style:italic;font-size:8px;fill:rgb(238,157,0);">acdh-1</text>
    </g>
    <g transform="matrix(4.16667,0,0,4.16667,173.404,32.4937)">
        <text x="0px" y="0px" style="font-family:'HelveticaNeue', 'Helvetica Neue';font-size:10px;">Pr<tspan x="9.63px 15.37px " y="0px 0px ">op</tspan>ionate</text>
    </g>
    <g transform="matrix(4.16667,0,0,4.16667,-157.171,-89.0938)">
        <path d="M131.427,57.487L155.019,70.494" style="fill:none;fill-rule:nonzero;stroke:black;stroke-width:0.75px;"/>
        <path d="M153.933,72.465L160.274,73.391L156.106,68.524L153.933,72.465Z" style="fill-rule:nonzero;stroke:black;stroke-width:0.75px;"/>
    </g>
    <g transform="matrix(4.16667,0,0,4.16667,471.275,264.044)">
        <text x="0px" y="0px" style="font-family:'HelveticaNeue', 'Helvetica Neue';font-size:10px;">Acrylyl-CoA</text>
    </g>
    <g transform="matrix(4.16667,0,0,4.16667,486.671,392.54)">
        <text x="0px" y="0px" style="font-family:'HelveticaNeue', 'Helvetica Neue';font-size:10px;">3HP-CoA</text>
    </g>
    <g transform="matrix(4.16667,0,0,4.16667,540.029,511.669)">
        <text x="0px" y="0px" style="font-family:'HelveticaNeue', 'Helvetica Neue';font-size:10px;">3HP</text>
    </g>
    <g transform="matrix(4.16667,0,0,4.16667,536.371,646.294)">
        <text x="0px" y="0px" style="font-family:'HelveticaNeue', 'Helvetica Neue';font-size:10px;">MSA</text>
    </g>
    <g transform="matrix(4.16667,0,0,4.16667,160.142,363.081)">
        <text x="0px" y="0px" style="font-family:'HelveticaNeue', 'Helvetica Neue';font-size:10px;">L-MM-CoA</text>
    </g>
    <g transform="matrix(4.16667,0,0,4.16667,448.487,325.869)">
        <text x="0px" y="0px" style="font-family:'HelveticaNeue-Italic', 'Helvetica Neue';font-style:italic;font-size:8px;fill:rgb(238,157,0);">ech-6</text>
    </g>
    <g transform="matrix(4.16667,0,0,4.16667,447.096,449.644)">
        <text x="0px" y="0px" style="font-family:'HelveticaNeue-Italic', 'Helvetica Neue';font-style:italic;font-size:8px;fill:rgb(238,157,0);">hach-1</text>
    </g>
    <g transform="matrix(4.16667,0,0,4.16667,444.929,562.985)">
        <text x="0px" y="0px" style="font-family:'HelveticaNeue-Italic', 'Helvetica Neue';font-style:italic;font-size:8px;fill:rgb(238,157,0);">hphd-1</text>
    </g>
    <g transform="matrix(4.16667,0,0,4.16667,468.546,683.973)">
        <text x="0px" y="0px" style="font-family:'HelveticaNeue-Italic', 'Helvetica Neue';font-style:italic;font-size:8px;">alh-8</text>
    </g>
    <g transform="matrix(4.16667,0,0,4.16667,-157.171,-89.0938)">
        <path d="M102.076,136.183L102.067,144.147" style="fill:none;fill-rule:nonzero;stroke:black;stroke-width:0.75px;"/>
        <path d="M99.817,144.145L102.061,150.147L104.317,144.149L99.817,144.145Z" style="fill-rule:nonzero;stroke:black;stroke-width:0.75px;"/>
    </g>
    <g transform="matrix(4.16667,0,0,4.16667,-157.171,-89.0938)">
        <path d="M152.576,203.956L126.092,199.077" style="fill:none;fill-rule:nonzero;stroke:black;stroke-width:0.75px;"/>
        <path d="M126.499,196.864L120.191,197.99L125.684,201.29L126.499,196.864Z" style="fill-rule:nonzero;stroke:black;stroke-width:0.75px;"/>
    </g>
    <g transform="matrix(4.16667,0,0,4.16667,-157.171,-89.0938)">
        <path d="M103.531,201.734C89.708,201.734 78.503,190.529 78.503,176.706C78.503,162.884 89.708,151.679 103.531,151.679C117.353,151.679 128.558,162.884 128.558,176.706C128.558,190.529 117.353,201.734 103.531,201.734Z" style="fill-opacity:0;fill-rule:nonzero;stroke:black;stroke-width:0.75px;"/>
    </g>
    <g transform="matrix(3.99538,1.18238,-1.18238,3.99538,64.4393,-181.779)">
        <path d="M98.396,152.319L98.645,152.269" style="fill:none;fill-rule:nonzero;stroke:black;stroke-width:0.5px;"/>
        <path d="M98.645,152.269L97.96,153.936L101.587,151.679L97.37,150.995L98.645,152.269Z" style="fill-rule:nonzero;stroke:black;stroke-width:0.5px;"/>
    </g>
    <g transform="matrix(-3.99538,1.18238,1.18238,3.99538,500.353,25.8293)">
        <path d="M98.396,152.319L98.645,152.269" style="fill:none;fill-rule:nonzero;stroke:black;stroke-width:0.5px;"/>
        <path d="M98.645,152.269L97.96,153.936L101.587,151.679L97.37,150.995L98.645,152.269Z" style="fill-rule:nonzero;stroke:black;stroke-width:0.5px;"/>
    </g>
    <g transform="matrix(1.55205,3.86681,-3.86681,1.55205,797.409,-27.4344)">
        <path d="M98.396,152.319L98.645,152.269" style="fill:none;fill-rule:nonzero;stroke:black;stroke-width:0.5px;"/>
        <path d="M98.645,152.269L97.96,153.936L101.587,151.679L97.37,150.995L98.645,152.269Z" style="fill-rule:nonzero;stroke:black;stroke-width:0.5px;"/>
    </g>
    <g transform="matrix(1.55205,-3.86681,-3.86681,-1.55205,621.409,1211.66)">
        <path d="M98.396,152.319L98.645,152.269" style="fill:none;fill-rule:nonzero;stroke:black;stroke-width:0.5px;"/>
        <path d="M98.645,152.269L97.96,153.936L101.587,151.679L97.37,150.995L98.645,152.269Z" style="fill-rule:nonzero;stroke:black;stroke-width:0.5px;"/>
    </g>
    <g transform="matrix(-2.4854,3.34423,-3.34423,-2.4854,1124.63,736.133)">
        <path d="M98.396,152.319L98.645,152.269" style="fill:none;fill-rule:nonzero;stroke:black;stroke-width:0.5px;"/>
        <path d="M98.645,152.269L97.96,153.936L101.587,151.679L97.37,150.995L98.645,152.269Z" style="fill-rule:nonzero;stroke:black;stroke-width:0.5px;"/>
    </g>
    <g transform="matrix(-2.4854,-3.34423,-3.34423,2.4854,934.632,643.89)">
        <path d="M98.396,152.319L98.645,152.269" style="fill:none;fill-rule:nonzero;stroke:black;stroke-width:0.5px;"/>
        <path d="M98.645,152.269L97.96,153.936L101.587,151.679L97.37,150.995L98.645,152.269Z" style="fill-rule:nonzero;stroke:black;stroke-width:0.5px;"/>
    </g>
    <g transform="matrix(4.16667,0,0,4.16667,173.879,661.765)">
        <text x="0px" y="0px" style="font-family:'HelveticaNeue', 'Helvetica Neue';font-size:10px;">TCA Cycle</text>
    </g>
    <g transform="matrix(4.16667,0,0,4.16667,-157.171,-89.0938)">
        <path d="M175.514,149.499L175.514,159.229" style="fill:none;fill-rule:nonzero;stroke:black;stroke-width:0.75px;"/>
        <path d="M173.264,159.229L175.514,165.229L177.764,159.229L173.264,159.229Z" style="fill-rule:nonzero;stroke:black;stroke-width:0.75px;"/>
    </g>
    <g transform="matrix(4.16667,0,0,4.16667,-157.171,-89.0938)">
        <path d="M175.514,117.755L175.514,127.485" style="fill:none;fill-rule:nonzero;stroke:black;stroke-width:0.75px;"/>
        <path d="M173.264,127.485L175.514,133.485L177.764,127.485L173.264,127.485Z" style="fill-rule:nonzero;stroke:black;stroke-width:0.75px;"/>
    </g>
    <g transform="matrix(4.16667,0,0,4.16667,-157.171,-89.0938)">
        <path d="M175.235,89.111L175.235,98.841" style="fill:none;fill-rule:nonzero;stroke:black;stroke-width:0.75px;"/>
        <path d="M172.985,98.841L175.235,104.841L177.485,98.841L172.985,98.841Z" style="fill-rule:nonzero;stroke:black;stroke-width:0.75px;"/>
    </g>
    <g transform="matrix(4.16667,0,0,4.16667,-157.171,-89.0938)">
        <path d="M102.091,82.969L102.082,92.046" style="fill:none;fill-rule:nonzero;stroke:black;stroke-width:0.75px;"/>
        <path d="M99.832,92.044L102.076,98.046L104.332,92.049L99.832,92.044Z" style="fill-rule:nonzero;stroke:black;stroke-width:0.75px;"/>
    </g>
    <g transform="matrix(4.16667,0,0,4.16667,-157.171,-89.0938)">
        <path d="M102.091,57.487L102.082,66.565" style="fill:none;fill-rule:nonzero;stroke:black;stroke-width:0.75px;"/>
        <path d="M99.832,66.562L102.076,72.565L104.332,66.567L99.832,66.562Z" style="fill-rule:nonzero;stroke:black;stroke-width:0.75px;"/>
    </g>
    <g transform="matrix(4.16667,0,0,4.16667,-157.171,-89.0938)">
        <path d="M102.076,34.255L102.067,43.333" style="fill:none;fill-rule:nonzero;stroke:black;stroke-width:0.75px;"/>
        <path d="M99.817,43.331L102.061,49.333L104.317,43.335L99.817,43.331Z" style="fill-rule:nonzero;stroke:black;stroke-width:0.75px;"/>
    </g>
</svg>
